<svg width="72" height="30" viewBox="0 0 72 30" fill="none" xmlns="http://www.w3.org/2000/svg">
<rect x="62" y="14" width="10" height="2" fill="#4C12F0"/>
<path d="M2.17344 22V6.68H2.19344L9.65344 17.26L17.2934 6.68H17.3334V22H14.4334V14.98L9.63344 21.8H9.59344L4.97344 15.42V22H2.17344Z" fill="#4C12F0"/>
<path d="M22.2383 14.66C22.2383 13.6467 22.4316 12.6867 22.8183 11.78C23.2049 10.8733 23.7383 10.0733 24.4183 9.38C25.1116 8.67333 25.9116 8.12 26.8183 7.72C27.7249 7.32 28.6983 7.12 29.7383 7.12C30.7649 7.12 31.7316 7.32 32.6383 7.72C33.5449 8.12 34.3449 8.67333 35.0383 9.38C35.7449 10.0733 36.2916 10.8733 36.6783 11.78C37.0783 12.6867 37.2783 13.6467 37.2783 14.66C37.2783 15.7 37.0783 16.6733 36.6783 17.58C36.2916 18.4867 35.7449 19.2867 35.0383 19.98C34.3449 20.66 33.5449 21.1933 32.6383 21.58C31.7316 21.9667 30.7649 22.16 29.7383 22.16C28.6983 22.16 27.7249 21.9667 26.8183 21.58C25.9116 21.1933 25.1116 20.66 24.4183 19.98C23.7383 19.2867 23.2049 18.4867 22.8183 17.58C22.4316 16.6733 22.2383 15.7 22.2383 14.66ZM25.2383 14.66C25.2383 15.5267 25.4383 16.32 25.8383 17.04C26.2516 17.7467 26.8049 18.3133 27.4983 18.74C28.1916 19.1533 28.9716 19.36 29.8383 19.36C30.6783 19.36 31.4316 19.1533 32.0983 18.74C32.7783 18.3133 33.3116 17.7467 33.6983 17.04C34.0849 16.32 34.2783 15.5267 34.2783 14.66C34.2783 13.7667 34.0783 12.9667 33.6783 12.26C33.2783 11.54 32.7383 10.9733 32.0583 10.56C31.3783 10.1333 30.6116 9.92 29.7583 9.92C28.9049 9.92 28.1383 10.1333 27.4583 10.56C26.7783 10.9733 26.2383 11.54 25.8383 12.26C25.4383 12.9667 25.2383 13.7667 25.2383 14.66ZM44.4856 17.42L39.0656 7.28H42.6456L46.0256 14.08L49.3256 7.28H52.9056L47.3856 17.42V22H44.4856V17.42ZM54.6953 14.66C54.6953 13.6467 54.8886 12.6867 55.2753 11.78C55.662 10.8733 56.1953 10.0733 56.8753 9.38C57.5686 8.67333 58.3686 8.12 59.2753 7.72C60.182 7.32 61.1553 7.12 62.1953 7.12C63.222 7.12 64.1886 7.32 65.0953 7.72C66.002 8.12 66.802 8.67333 67.4953 9.38C68.202 10.0733 68.7486 10.8733 69.1353 11.78C69.5353 12.6867 69.7353 13.6467 69.7353 14.66C69.7353 15.7 69.5353 16.6733 69.1353 17.58C68.7486 18.4867 68.202 19.2867 67.4953 19.98C66.802 20.66 66.002 21.1933 65.0953 21.58C64.1886 21.9667 63.222 22.16 62.1953 22.16C61.1553 22.16 60.182 21.9667 59.2753 21.58C58.3686 21.1933 57.5686 20.66 56.8753 19.98C56.1953 19.2867 55.662 18.4867 55.2753 17.58C54.8886 16.6733 54.6953 15.7 54.6953 14.66ZM57.6953 14.66C57.6953 15.5267 57.8953 16.32 58.2953 17.04C58.7086 17.7467 59.262 18.3133 59.9553 18.74C60.6486 19.1533 61.4286 19.36 62.2953 19.36C63.1353 19.36 63.8886 19.1533 64.5553 18.74C65.2353 18.3133 65.7686 17.7467 66.1553 17.04C66.542 16.32 66.7353 15.5267 66.7353 14.66C66.7353 13.7667 66.5353 12.9667 66.1353 12.26C65.7353 11.54 65.1953 10.9733 64.5153 10.56C63.8353 10.1333 63.0686 9.92 62.2153 9.92C61.362 9.92 60.5953 10.1333 59.9153 10.56C59.2353 10.9733 58.6953 11.54 58.2953 12.26C57.8953 12.9667 57.6953 13.7667 57.6953 14.66Z" fill="#070707"/>
</svg>
